<?xml version="1.0" encoding="utf-8"?>
<!-- Generator: Adobe Illustrator 23.0.2, SVG Export Plug-In . SVG Version: 6.00 Build 0)  -->
<svg version="1.1" id="logotype" xmlns="http://www.w3.org/2000/svg" xmlns:xlink="http://www.w3.org/1999/xlink" x="0px" y="0px"
	 viewBox="0 0 322.2 111" style="enable-background:new 0 0 322.2 111;" xml:space="preserve">
<g id="splat">
	<path d="M1.9,24.3c-0.4,0.6-0.5,1.4-0.5,2.1c0.1,1.7,0.9,2.4,2.4,3c1.5,0.5,2.8,1.4,3.8,2.6c0.7,0.8,1.1,2,2.1,2.6s2.2,0.5,3.3,0.8
		c0.5,0.2,1,0.8,1.5,0.9c1.2,0.1,1.4-0.8,1.3-1.9s-1-1.8-1.5-2.7c-0.7-1.1-0.8-2.4-1.4-3.6c-1-1.7-2.2-3.2-3.7-4.5
		c-0.8-0.8-1.8-1.3-2.9-1.5C4.6,22.1,2.9,22.9,1.9,24.3z"/>
	<path d="M146.2,2.5c-0.2,0.8-0.6,1.6-1,2.4C143.9,7,144,8.2,146,9.5c0.5,0.3,1,0.7,1.4,1.2c0.5,0.7,0.4,1.3,1.3,1.6
		c1.1,0.3,2.3-0.1,3-1c0.2-0.3,0.5-0.7,0.8-0.9c0.9-0.7,2.2-1,2.8-2.1c0.7-1.3,0.3-3.4-0.2-4.7c-0.8-2-1.8-2-3.7-2
		c-1.1,0.1-1.8-0.8-2.8-0.8C147.5,0.7,146.5,1.4,146.2,2.5z"/>
	<path d="M117.1,18.2c1.7-0.8,2.9-2.6,1.6-4.6c-2.5-3.9-6.9-2.2-6.5,2.3C112.5,18.8,115.2,19.2,117.1,18.2z"/>
	<path d="M61.9,107.2c-1.3-1.4-3.8-2.3-4.1-0.2c0,1.2,0.5,2.4,1.4,3.2c0.5,0.5,1.3,0.7,2,0.5c0.7-0.3,1.3-1,1.4-1.8
		C62.6,108.3,62.4,107.7,61.9,107.2z"/>
</g>
<g id="type">
	<path d="M86.3,89.6c0,0.7-0.2,0.9-0.8,0.9h-2.9c-0.6,0-0.9-0.3-0.9-0.9V59.5c0-0.6,0.2-0.9,0.9-0.9h2.9c0.6,0,0.8,0.3,0.8,0.9
		L86.3,89.6z"/>
	<path d="M96.9,67.2c0.6,0,0.8,0.3,0.9,0.9l0.1,1.5c2.2-1.8,5-2.8,7.8-2.8c4.4,0,6.6,2.5,6.6,6v16.7c0,0.7-0.2,0.9-0.8,0.9h-2.7
		c-0.6,0-0.9-0.3-0.9-0.9V73.9c0-1.9-0.9-3.1-3.5-3.1c-2.3,0.1-4.6,0.9-6.4,2.4v16.4c0,0.7-0.2,0.9-0.9,0.9h-2.7
		c-0.7,0-0.9-0.3-0.9-0.9V68.1c0-0.6,0.2-0.9,0.9-0.9H96.9z"/>
	<path d="M137.3,89.6c0.3,0.4,0.2,0.9-0.4,0.9h-3c-0.7,0-1-0.4-1.4-0.9l-8-10.5h-1.4v10.5c0,0.6-0.2,0.9-0.9,0.9h-2.8
		c-0.6,0-0.9-0.3-0.9-0.9V58.6c0-0.6,0.2-0.9,0.9-0.9h2.8c0.6,0,0.9,0.3,0.9,0.9v17.2h1.3l7.1-7.7c0.3-0.5,0.9-0.8,1.5-0.9h3
		c0.7,0,0.9,0.5,0.4,0.9l-8.3,9.2L137.3,89.6z"/>
	<path d="M176.9,71.9c0.6,0,0.9,0.2,0.9,0.9v2c0,0.7-0.3,0.9-0.9,0.9h-3.2v8c0,3.9-2.7,7.2-11.3,7.2s-11.3-3.2-11.3-7.1v-4.8
		c0-2.5,0.9-4.5,4.2-5.4c-3-0.9-3.8-2.5-3.8-5.1v-3.4c0-3.8,2-7,9.8-7s9.9,3.3,9.9,7.2v1.2c0,0.6-0.2,0.9-0.9,0.9h-2.8
		c-0.6,0-0.9-0.3-0.9-0.9V66c0-2.5-1.3-4-5.4-4s-5.3,1.5-5.3,4v2c0,2.6,1.3,3.9,5.5,3.9L176.9,71.9z M169.2,83.1v-7.4h-8.1
		c-4.2,0-5.5,1.4-5.5,3.9v3.4c0,2.5,2.1,4,6.8,4S169.3,85.6,169.2,83.1L169.2,83.1z"/>
	<path d="M208.8,66c0-2.5-1.5-4-5.7-4s-5.7,1.5-5.7,4V67c-0.1,1.5,0.9,2.8,2.4,3.1l8.5,3.2c2.8,1.1,5.2,2.9,5.2,6.4v3.9
		c0,3.9-2.7,7.2-10.5,7.2s-10.6-3.4-10.6-7.2v-2.7c0-0.6,0.3-0.9,0.9-0.9h2.8c0.6,0,0.9,0.3,0.9,0.9V83c0,2.5,1.8,4,6,4
		s6.1-1.4,6.1-4v-2.2c0-2.4-2.1-3.1-4-3.9l-7.9-3.1c-2.5-0.9-4.1-3.2-4.2-5.8v-2.7c0-3.9,2.5-7.2,10.1-7.2s10.2,3.4,10.2,7.2v2.1
		c0,0.6-0.2,0.9-0.9,0.9h-2.8c-0.7,0-0.9-0.3-0.9-0.9L208.8,66z"/>
	<path d="M241.1,89.7c-0.2,0.6-0.3,0.8-0.9,0.8H237c-0.6,0-0.8-0.3-0.9-0.8l-3.5-13.9c-0.2-0.8-0.4-1.6-0.5-2.4l-0.6,2.4l-4,13.9
		c-0.1,0.6-0.3,0.8-0.9,0.8h-3.2c-0.6,0-0.8-0.2-0.9-0.8l-5.8-21.5c-0.2-0.6,0.2-0.9,0.8-0.9h2.6c0.6,0,0.9,0.4,1,0.9l3.9,14.6
		c0.2,0.8,0.3,2,0.4,2.1l0.5-2.1l4-14.6c0.1-0.6,0.4-0.9,1-0.9h2.7c0.6,0,0.9,0.4,1,0.9l3.7,14.6c0.3,1.2,0.4,1.9,0.4,2
		c0.1-0.7,0.3-1.3,0.5-2l3.9-14.6c0.1-0.6,0.4-0.9,1-0.9h2.2c0.6,0,1,0.3,0.8,0.9L241.1,89.7z"/>
	<path d="M255.7,89.6c0,0.7-0.2,0.9-0.9,0.9h-2.7c-0.7,0-0.9-0.3-0.9-0.9V68.1c0-0.7,0.2-0.9,0.9-0.9h2.8c0.6,0,0.9,0.3,0.9,0.9
		L255.7,89.6z"/>
	<g id="logotype_dot">
		<path d="M250.9,60.9c0.2-1.2,1-2.2,2.1-2.8c1.1-0.5,3.3-1,3.4,0.9c0,0.7-0.4,1.2-0.7,1.7c-0.6,1.2-0.3,2.8-2,3.2
			c-1.3,0.3-2.6-0.8-2.8-2C250.8,61.6,250.8,61.3,250.9,60.9z"/>
	</g>
	<path d="M272.9,67.3c0.6,0,0.9,0.2,0.9,0.9V70c0,0.7-0.3,0.9-0.9,0.9h-4.8v12.6c0,2,1.2,3.1,4.8,3.1h0.9c0.6,0,0.9,0.3,0.9,0.9v2
		c0,0.7-0.3,0.9-0.9,0.9h-1.6c-6.6,0-8.6-2.3-8.6-6.4V71h-2.6c-0.7,0-0.9-0.3-0.9-0.9v-1.6c0-0.6,0.2-0.9,0.9-0.9l2.3-0.2h0.3v-4.7
		c0-0.7,0.3-0.9,0.9-0.9h2.8c0.6,0,0.8,0.3,0.8,0.9v4.7L272.9,67.3z"/>
	<path d="M296.4,73.3v0.9c0,0.7-0.2,0.9-0.8,0.9H293c-0.7,0-0.9-0.2-0.9-0.9v-0.5c0-2-1.1-3.1-4.7-3.1s-4.6,1.1-4.6,3.1v10.5
		c0,2,1.1,3.1,4.6,3.1s4.7-1.1,4.7-3.1v-0.9c0-0.6,0.2-0.9,0.9-0.9h2.5c0.6,0,0.8,0.3,0.8,0.9v1.2c0,3.9-2.4,6.4-9,6.4s-9-2.6-9-6.4
		V73.3c0-3.9,2.4-6.4,9-6.4S296.4,69.4,296.4,73.3z"/>
	<path d="M306.1,69.4c2.2-1.7,4.9-2.7,7.7-2.6c4.4,0,6.6,2.5,6.6,6v16.7c0,0.7-0.2,0.9-0.9,0.9h-2.7c-0.6,0-0.9-0.3-0.9-0.9V73.9
		c0-1.9-0.9-3.1-3.5-3.1c-2.3,0.1-4.6,0.9-6.4,2.4v16.4c0,0.7-0.2,0.9-0.8,0.9h-2.7c-0.7,0-0.9-0.3-0.9-0.9v-31
		c0-0.7,0.2-0.9,0.9-0.9h2.7c0.6,0,0.8,0.3,0.8,0.9L306.1,69.4z"/>
</g>
<g id="logo">
	<path d="M26.2,70h0.3c0.7-0.2,1.2-0.7,1.4-1.3c0.2-0.5,0.3-1,0.3-1.5c-0.2-1.2-1.2-2.2-2.4-2.5c-1.1-0.4-2.4,0.1-2.8,1.2
		c-0.1,0.2-0.1,0.5-0.2,0.8c0.1,1.1,0.6,2.1,1.4,2.9C24.9,69.9,25.6,70.1,26.2,70z"/>
	<path d="M31.1,91.5c-1.2,0-2.3,0.5-3.1,1.4c-0.9,1.1-1,2.6-0.2,3.8c0.7,0.8,1.7,1.3,2.8,1.4c1,0.3,2,0.1,2.8-0.4
		c0.5-0.8,0.8-1.6,0.9-2.6c0.2-0.8,0-1.6-0.4-2.3C33.2,92,32.2,91.5,31.1,91.5z"/>
	<path d="M47,58.4h-4.1c-1.2,0-2.3,0.5-3.1,1.4c-0.2,0.3-0.4,0.6-0.4,0.9c-0.2,0.9,0,1.9,0.6,2.7c0.5,0.6,1.2,1,1.9,1.1
		c0.1,0.5-1.1,1.1-1.6,1.2c-0.5,0.1-0.9,0.1-1.4,0c-0.8-0.2-1.6-0.1-2.3,0.1l-0.1-0.2c-0.3-0.6-0.5-1.3-0.6-1.9c0-0.5,0-1-0.1-1.5
		c0,0,0-0.1,0-0.1c-0.2-0.7-0.5-1.3-1-1.7c-0.5-0.5-1-1-1.6-1.4c-0.2-0.1-0.3-0.3-0.5-0.4c-0.8-0.9-0.3-2-0.9-3
		c-1-1.7-2.9-3.1-5-2.4c-1.2,0.5-2.1,1.5-2.4,2.7c-0.5,1.2,0.2,2.8,0.9,3.7c0.7,1,1.7,1.7,2.8,2c0.7,0.1,1.4,0.4,2,0.9
		c0.6,0.6,0.5,1.6,0.9,2.3c0.4,0.6,1,1,1.7,1.2c0.7,0.3,1.4,0.7,2,1.1c0.2,0.2,0.4,0.4,0.6,0.7c-0.1,0.2-0.1,0.3-0.1,0.5
		c-0.1,0.7-0.4,1.3-0.7,1.9c-0.5,0.6-0.9,1.1-1.5,1.6c-0.9,1-1.3,2.3-1,3.6c0.2,0.5,0.3,1,0.4,1.6c0,0.7-0.4,1.3-0.3,2
		s1,1.1,1.3,1.8s0.2,1.6,0.7,2.2c0.7,0.9,2.2,0.6,2.3,2.1c0,0.2,0,0.5-0.1,0.7c-1.3-0.1-2.6,1.1-2.3,3.1s2,2.2,3.4,1.6
		c1.1-0.4,1.7-1.5,1.4-2.6c0.6-0.2,1.2-0.3,1.8-0.2c0.8,0.3,1.4,1.1,1.3,2c0,0.5,0.4,0.9,0.9,0.9l0,0h4.1c0.5,0,0.9-0.4,0.9-0.9l0,0
		V59.4C47.8,58.9,47.5,58.5,47,58.4z"/>
	<path d="M28.6,84.9c0.4-0.8,0.2-1.7,0.5-2.5c0.4-1,0.2-2.1-0.5-2.9c-0.3-0.5-0.7-1-1.1-1.5c-0.2-0.2-0.4-0.3-0.6-0.4
		c-0.2-0.1-0.5-0.2-0.7-0.2c-0.6-0.1-1.2,0.3-1.8,0.1c-0.3-0.1-0.7-0.2-1-0.3c-0.5,0-1,0.1-1.4,0.3c-0.9,0.3-1.4,1.5-1.8,2.3
		c-0.3,0.5-0.6,0.9-0.8,1.5c-0.2,0.6-0.2,1.3-0.1,1.9c0.2,0.7,0.6,1.3,1.1,1.9c0.8,0.9,1.5,2.2,2.9,2.2c1.2-0.1,2.4-0.3,3.6-0.6
		C27.6,86.4,28.3,85.8,28.6,84.9z"/>
	<path d="M52.8,58.4H65c0.5,0,0.9,0.4,0.9,0.9v30.1c0,0.5-0.4,0.9-0.9,0.9H52.8c-0.5,0-0.9-0.4-0.9-0.9V59.4
		C51.9,58.8,52.3,58.4,52.8,58.4z"/>
</g>
</svg>
