<svg xmlns="http://www.w3.org/2000/svg" viewBox="0 0 801.8 5.27" preserveAspectRatio="none">
  <title>splat-separator-1</title>
  <g id="splat-separator-1">
    <path d="M1.08,2.75A89.17,89.17,0,0,1,13.75,2c4.19,0,8.37.08,12.54.19,8.35.23,16.64.62,25,.52,16.68,0,33.35.29,50,.11,8.32-.08,16.65-.26,25-.59s16.67-.64,25-.82l50-1.14c8.34-.14,16.68-.1,25,0l25,.28c16.66.2,33.33.37,50,.38s33.3-.13,50-.51,33.35-.47,50-.43c33.35.06,66.68.73,100,1.22q25,.39,50,.33c16.67,0,33.33-.32,50-.48s33.35-.24,50-.06l50,.67c16.66.24,33.32,0,50,0s33.35.05,50,.59a.5.5,0,0,1,0,1c-16.66-.27-33.32-.08-50,.09l-25,.3c-8.34.08-16.68.06-25,0-16.68-.1-33.35-.49-50-.74s-33.32-.26-50-.18l-50,.17c-16.67,0-33.34-.19-50-.3-33.34-.28-66.67-.74-100-.61-16.66.07-33.32.28-50,.76s-33.36.83-50,.89-33.35-.09-50-.23l-25-.22q-12.5-.06-25-.3l-12.5-.26q-6.25-.14-12.5-.19c-4.16,0-8.33-.06-12.49,0s-8.33.11-12.5.24c-8.33.19-16.65.53-25,.86s-16.67.54-25,.63c-16.68.19-33.35.16-50,.28-8.34.14-16.71-.09-25-.17-4.16,0-8.32,0-12.47,0a87.84,87.84,0,0,0-12.25.9H1.47a1.26,1.26,0,0,1-.42-2.49Z"/>
  </g>
</svg>
