<svg viewBox="0 0 206 5" fill="none" xmlns="http://www.w3.org/2000/svg" preserveAspectRatio="none">
<path fill="black" d="M0.627788 2.8064C1.02528 2.37807 1.69475 2.17818 2.28053 2.07823C2.87677 1.97829 3.46256 1.96401 4.02742 1.97115C5.15714 1.99256 6.2241 2.11393 7.2806 2.22815L8.80782 2.41376C9.06933 2.43518 9.26808 2.45659 9.51913 2.46373L10.2932 2.49229C11.3183 2.52798 12.3539 2.53512 13.3895 2.53512C17.5213 2.51371 21.6532 2.15676 25.8583 1.8712C34.2998 1.23584 42.8355 1.21442 51.2771 1.36434C59.7291 1.52139 68.1497 1.83551 76.5389 1.97115C84.9177 2.1639 93.2965 1.80695 101.769 1.68559C103.882 1.65703 106.006 1.64989 108.129 1.67131C110.263 1.68559 112.376 1.76412 114.458 1.79267C118.653 1.85692 122.847 1.82837 127.063 1.77126C131.278 1.72128 135.473 1.62134 139.72 1.59278C143.956 1.58564 148.182 1.67845 152.387 1.70701C156.603 1.76412 160.756 1.68559 164.992 1.57137C169.208 1.4857 173.444 1.42859 177.691 1.52853C179.825 1.57137 181.927 1.69273 183.999 1.72842C186.091 1.76412 188.193 1.78553 190.306 1.78553H196.708L198.329 1.79981C198.852 1.79981 199.313 1.79981 199.752 1.74984C200.631 1.65703 201.457 1.45 202.262 1.12161C203.256 0.714694 204.543 0.936001 205.139 1.62134C205.735 2.29954 205.411 3.17763 204.407 3.58455C204.145 3.69163 203.863 3.75588 203.581 3.7773L203.455 3.78444C202.252 3.87724 200.986 3.93435 199.752 3.83441C199.135 3.78444 198.549 3.71305 198.026 3.63452C197.513 3.55599 197.011 3.49174 196.499 3.43463C194.459 3.1919 192.367 3.10624 190.275 3.0634L183.936 2.97774C181.792 2.94204 179.699 2.81354 177.618 2.77785C173.434 2.6779 169.239 2.72787 165.034 2.81354C160.839 2.92063 156.571 2.99915 152.356 2.9349C148.13 2.89207 143.925 2.82068 139.73 2.86351C135.546 2.92063 131.32 3.04913 127.105 3.12765C122.889 3.21332 118.653 3.27043 114.416 3.23474C112.282 3.22046 110.19 3.15621 108.108 3.16335C106.016 3.16335 103.924 3.18477 101.822 3.2276C93.4429 3.39893 84.97 3.82727 76.4866 3.70591C68.0242 3.63452 59.6035 3.29899 51.2038 3.17049C42.7937 3.02057 34.4358 3.0991 26.0989 3.67021C21.9147 3.93435 17.6469 4.18422 13.3372 4.04144C12.2598 4.01288 11.1823 3.94863 10.1154 3.85583L9.30992 3.78444C9.03795 3.75588 8.71368 3.71305 8.45217 3.67021C7.90823 3.58455 7.40613 3.4846 6.90403 3.39179C5.89983 3.20618 4.90609 3.02771 3.92281 2.94204C2.97092 2.86351 1.92488 2.86351 1.48554 3.21332L1.46462 3.23474C1.27633 3.37752 0.9416 3.39893 0.721931 3.26329C0.523184 3.14907 0.491803 2.94918 0.627788 2.8064Z" />
</svg>
