<svg xmlns="http://www.w3.org/2000/svg" viewBox="0 0 7.15 8.23"><title>splat-span</title><g id="Layer_2" data-name="Layer 2"><g id="slow_software" data-name="slow software"><path d="M4.77,6.49a.92.92,0,0,0-.21.34,1.33,1.33,0,0,0,.63,1.34,1.88,1.88,0,0,0,1.86-.63,2,2,0,0,0,0-1.11c-.09-.51-.3-1.72-1-1.81a.79.79,0,0,0-.87.59,5.87,5.87,0,0,1-.08.72A1.57,1.57,0,0,1,4.77,6.49Z"/><path d="M.37.09.26.17A.72.72,0,0,0,0,1a3.48,3.48,0,0,0,.17.74A.85.85,0,0,0,1,2.1a1.23,1.23,0,0,0,.81-.66,1,1,0,0,0-.38-1A2.06,2.06,0,0,0,.86.05.47.47,0,0,0,.37.09Z"/></g></g></svg>