<svg width="16" height="16" viewBox="0 0 16 16" fill="none" xmlns="http://www.w3.org/2000/svg">
<path d="M9.37489 7.66505C8.72816 7.75116 8.17795 8.18166 8.01386 9.06181C7.84011 9.95153 7.96559 11.2144 8.8826 11.6736C9.44246 11.9606 9.96371 11.6257 10.1954 12.4102C10.2919 12.7259 10.2726 12.9651 10.427 13.2712C10.6587 13.7017 10.8614 14.1418 11.2379 14.448C12.4058 15.4333 14.0565 15.7299 15.1183 14.4671C16.1318 13.2617 15.6009 11.3579 14.5874 10.3055C13.9985 9.69323 13.2746 9.61669 12.4734 9.55929C11.6819 9.50189 11.5757 8.63131 11.0352 8.19123C10.5525 7.79899 9.92509 7.59809 9.37489 7.66505Z" fill="black"/>
<path d="M0.454429 0.614728C-0.28883 1.79145 0.908107 3.37955 2.08574 3.75266C2.78073 3.97269 3.57226 3.68569 3.92941 3.04471C4.19968 2.54723 4.08385 2.24109 3.85218 1.78188C3.39851 0.920867 2.89657 0.270321 1.88303 0.0502835C1.37144 -0.0549519 1.00463 -0.0166845 0.637831 0.375557C0.570262 0.452091 0.502693 0.538193 0.454429 0.614728Z" fill="black"/>
</svg>
