<svg viewBox="0 0 117 3" fill="none" xmlns="http://www.w3.org/2000/svg" preserveAspectRatio="none">
<path fill="#f7505e" d="M0.621968 1.50016C1.40814 1.07419 2.07697 1.07419 2.72233 1.04287C3.3677 1.03034 3.98373 1.08046 4.59389 1.1431L6.39504 1.34982C6.99933 1.43125 7.52736 1.43125 8.15512 1.43125C10.5723 1.44378 12.9719 1.59412 15.3597 1.51268C16.5507 1.4751 17.7417 1.39993 18.921 1.2308C20.1061 1.06793 21.3205 0.886267 22.5233 0.786041C23.1276 0.717135 23.7319 0.692078 24.3303 0.635701L26.1373 0.472833C27.3459 0.341285 28.5545 0.184681 29.7631 0.103247C30.9717 0.0218127 32.1803 0.0343411 33.3888 0.0844544L36.997 0.234794C39.3966 0.341285 41.7903 0.428983 44.1781 0.441512C46.566 0.479097 48.9186 0.391398 51.3182 0.203473C53.7413 0.0218127 56.1643 -0.0220364 58.5815 0.00928441C63.4159 0.0907185 68.2209 0.416455 73.02 0.667022C75.4196 0.798569 77.8192 0.854947 80.2129 0.836154C82.6066 0.817362 85.0062 0.660757 87.4175 0.566795C89.823 0.472833 92.246 0.385134 94.6632 0.497889C97.0804 0.585588 99.4741 0.748456 101.862 0.867475C104.25 0.992758 106.62 0.886267 109.043 0.880003C111.454 0.861211 113.877 0.911324 116.289 1.22453C116.447 1.24332 116.564 1.39993 116.547 1.57533C116.529 1.73819 116.394 1.85721 116.242 1.85095C113.854 1.74446 111.466 1.83216 109.072 1.93238C107.876 1.9825 106.679 2.07019 105.47 2.10152C104.256 2.1391 103.041 2.13284 101.833 2.10152C99.4154 2.0514 97.01 1.85721 94.6221 1.73819C92.2343 1.62544 89.8464 1.58159 87.4468 1.61291L80.2246 1.68808C77.8075 1.70061 75.402 1.58159 72.9966 1.52521C68.1857 1.37487 63.3806 1.11178 58.5932 1.2308C56.1995 1.28091 53.8117 1.41246 51.4414 1.66929C49.0477 1.93865 46.6012 2.10778 44.184 2.14536C41.761 2.17669 39.3438 2.10152 36.9383 2.03261L33.336 1.92612C32.1392 1.90733 30.9423 1.85721 29.7513 1.75699C28.5603 1.66302 27.3635 1.50642 26.1666 1.46883C25.5682 1.44378 24.9698 1.43125 24.3714 1.46883C23.7729 1.48763 23.1745 1.52521 22.5819 1.58785C21.3851 1.68182 20.2176 1.85721 19.0148 2.02635C17.8062 2.20174 16.5977 2.3145 15.3891 2.36461C12.966 2.47737 10.5547 2.46484 8.16686 2.53374C7.5919 2.56506 6.9172 2.56506 6.31877 2.53374L4.51762 2.43352C3.92506 2.41472 3.34423 2.40846 2.78687 2.45857C2.24124 2.50242 1.67802 2.6465 1.40227 2.84695L1.3788 2.85948C1.03852 3.11005 0.575032 3.01608 0.346222 2.65276C0.117411 2.28944 0.205415 1.79457 0.539831 1.55027C0.569165 1.53148 0.5985 1.51268 0.621968 1.50016Z"/>
</svg>
