<svg width="257" height="257" viewBox="0 0 257 257" fill="none" xmlns="http://www.w3.org/2000/svg">
<path d="M103 23.83C102.63 24.4723 102.459 25.2103 102.51 25.95C102.59 27.68 103.37 28.4 104.93 28.95C106.429 29.4198 107.746 30.342 108.7 31.59C109.44 32.42 109.84 33.59 110.82 34.21C111.8 34.83 113.07 34.72 114.13 35.04C114.64 35.2 115.13 35.87 115.65 35.93C116.8 36.06 117.01 35.1 116.91 34.06C116.81 33.02 115.91 32.29 115.38 31.4C114.72 30.29 114.61 28.96 113.94 27.84C112.98 26.1491 111.746 24.6286 110.29 23.34C109.511 22.5386 108.487 22.0211 107.38 21.87C106.542 21.7785 105.694 21.9118 104.924 22.2563C104.155 22.6007 103.49 23.1439 103 23.83V23.83Z" fill="black"/>
<path d="M247.31 2.12001C247.061 2.94622 246.726 3.74394 246.31 4.5C244.96 6.56 245.09 7.81 247.07 9.1C247.598 9.40582 248.066 9.80574 248.45 10.28C248.92 10.95 248.82 11.54 249.76 11.84C250.303 11.9964 250.88 11.9846 251.415 11.8061C251.951 11.6275 252.42 11.2907 252.76 10.84C253.003 10.5017 253.278 10.187 253.58 9.90001C254.49 9.17001 255.77 8.90001 256.38 7.83001C257.12 6.52001 256.71 4.42 256.21 3.1C255.46 1.1 254.4 1.1 252.51 1.1C251.42 1.15 250.75 0.300003 249.71 0.280003C249.158 0.25716 248.615 0.42883 248.177 0.76508C247.738 1.10133 247.431 1.58083 247.31 2.12001Z" fill="black"/>
<path d="M1.83 256.85C6.09 255.32 5.5 250.56 6.83 247.03C8.3 243.03 11.03 239.79 12.72 236.03C13.04 235.32 15.58 227.69 13.27 228.57C11.81 229.12 10.68 232.24 9.95 233.52C8.39 236.23 6.64 238.91 5.29 241.76C4.08 244.31 3.1 246.94 1.83 249.48C0.120003 252.86 -0.699997 254 1.83 256.85Z" fill="black"/>
<path d="M72.4 163.73C74.59 160.83 73.17 155.04 69.63 159.48C67.39 162.29 68.91 168.35 72.4 163.73Z" fill="black"/>
<path d="M218.19 17.82C219.89 17.03 221.08 15.25 219.81 13.23C217.35 9.31001 212.88 11.05 213.34 15.49C213.63 18.34 216.25 18.73 218.19 17.82Z" fill="black"/>
<path d="M163 106.81C161.69 105.36 159.17 104.48 158.89 106.65C158.875 107.259 158.997 107.863 159.246 108.418C159.495 108.974 159.866 109.466 160.33 109.86C160.581 110.125 160.904 110.311 161.26 110.394C161.615 110.478 161.987 110.455 162.33 110.33C162.696 110.186 163.018 109.949 163.263 109.642C163.509 109.335 163.67 108.969 163.73 108.58C163.734 108.251 163.671 107.925 163.546 107.62C163.42 107.316 163.235 107.041 163 106.81V106.81Z" fill="black"/>
<path d="M127.34 69.57H127.67C127.996 69.481 128.295 69.3131 128.541 69.0812C128.787 68.8492 128.972 68.5604 129.08 68.24C129.305 67.7665 129.405 67.2431 129.37 66.72C129.257 66.1197 128.973 65.5646 128.553 65.1213C128.133 64.6779 127.593 64.365 127 64.22C126.67 64.0912 126.315 64.0439 125.963 64.0819C125.611 64.12 125.274 64.2424 124.979 64.4387C124.685 64.6349 124.442 64.8994 124.271 65.2095C124.101 65.5196 124.008 65.8662 124 66.22C124.036 66.7689 124.182 67.305 124.429 67.7964C124.677 68.2877 125.02 68.7243 125.44 69.08C125.992 69.4714 126.668 69.6459 127.34 69.57Z" fill="black"/>
<path d="M132.17 91.11C131.58 91.0907 130.994 91.2122 130.46 91.4643C129.926 91.7165 129.46 92.092 129.1 92.56C128.674 93.0865 128.423 93.7334 128.384 94.4096C128.344 95.0859 128.518 95.7575 128.88 96.33C129.623 97.0915 130.59 97.5959 131.64 97.77C132.117 97.8986 132.615 97.9276 133.104 97.8553C133.592 97.7831 134.061 97.6111 134.48 97.35C135.006 96.5901 135.317 95.7021 135.38 94.78C135.47 94.3865 135.476 93.9785 135.399 93.5823C135.321 93.1862 135.161 92.8107 134.93 92.48C134.608 92.0534 134.19 91.7075 133.711 91.4698C133.232 91.232 132.705 91.1088 132.17 91.11V91.11Z" fill="black"/>
<path d="M148.06 58H144C143.419 58.018 142.848 58.153 142.32 58.397C141.793 58.641 141.32 58.989 140.93 59.42C140.712 59.6808 140.558 59.989 140.48 60.32C140.389 60.7884 140.397 61.2707 140.503 61.7358C140.61 62.2009 140.813 62.6384 141.1 63.02C141.578 63.6142 142.265 64.0039 143.02 64.11C143.09 64.65 141.89 65.24 141.46 65.34C140.993 65.4098 140.517 65.4098 140.05 65.34C139.276 65.1841 138.476 65.2219 137.72 65.45L137.59 65.24C137.252 64.6492 137.054 63.9891 137.01 63.31C137.007 62.8151 136.973 62.3208 136.91 61.83C136.915 61.7968 136.915 61.7632 136.91 61.73C136.736 61.0718 136.391 60.4714 135.91 59.99C135.415 59.4813 134.88 59.0131 134.31 58.59C134.135 58.4534 133.971 58.3029 133.82 58.14C133.07 57.27 133.49 56.14 132.95 55.14C131.95 53.43 130.05 52.08 127.95 52.75C127.376 52.9918 126.861 53.3532 126.439 53.8103C126.016 54.2673 125.696 54.8093 125.5 55.4C125 56.55 125.72 58.18 126.43 59.11C127.127 60.0661 128.117 60.7684 129.25 61.11C129.984 61.1981 130.677 61.4929 131.25 61.96C131.8 62.58 131.72 63.55 132.14 64.26C132.564 64.8291 133.149 65.2577 133.82 65.49C134.532 65.7766 135.204 66.153 135.82 66.61C136.039 66.7981 136.224 67.0211 136.37 67.27C136.311 67.4304 136.261 67.594 136.22 67.76C136.076 68.421 135.837 69.0576 135.51 69.65C135.057 70.2348 134.562 70.7862 134.03 71.3C133.583 71.7734 133.258 72.3487 133.084 72.9761C132.91 73.6034 132.891 74.2639 133.03 74.9C133.237 75.4099 133.379 75.9442 133.45 76.49C133.45 77.17 133 77.81 133.11 78.49C133.22 79.17 134.11 79.6 134.43 80.25C134.75 80.9 134.64 81.83 135.12 82.45C135.81 83.35 137.34 83.1 137.44 84.54C137.441 84.7685 137.418 84.9966 137.37 85.22C136.03 85.12 134.82 86.32 135.03 88.3C135.24 90.28 137.03 90.55 138.41 89.91C138.933 89.7292 139.368 89.355 139.625 88.8642C139.881 88.3734 139.94 87.803 139.79 87.27C140.357 87.0257 140.987 86.9662 141.59 87.1C142 87.2427 142.353 87.515 142.595 87.8758C142.836 88.2366 142.954 88.6663 142.93 89.1C142.93 89.3493 143.029 89.5884 143.205 89.7647C143.382 89.941 143.621 90.04 143.87 90.04H147.99C148.239 90.04 148.478 89.941 148.655 89.7647C148.831 89.5884 148.93 89.3493 148.93 89.1V58.94C148.931 58.7024 148.841 58.4733 148.68 58.2989C148.518 58.1245 148.297 58.0177 148.06 58V58Z" fill="black"/>
<path d="M129.67 84.52C130.03 83.7 129.89 82.81 130.2 82C130.409 81.5301 130.477 81.0094 130.395 80.5016C130.314 79.9937 130.086 79.5206 129.74 79.14C129.405 78.6039 129.024 78.0986 128.6 77.63C128.404 77.4711 128.189 77.3368 127.96 77.23C127.726 77.13 127.481 77.0594 127.23 77.02C126.6 76.92 126.04 77.3 125.42 77.16C125.094 77.0364 124.76 76.9361 124.42 76.86C123.924 76.8472 123.431 76.9357 122.97 77.12C122.1 77.46 121.61 78.61 121.19 79.38C120.855 79.8332 120.58 80.3272 120.37 80.85C120.194 81.4606 120.156 82.103 120.26 82.73C120.454 83.4334 120.822 84.0765 121.33 84.6C122.13 85.53 122.81 86.79 124.21 86.84C125.42 86.7891 126.62 86.5875 127.78 86.24C128.209 86.1246 128.605 85.9083 128.933 85.6091C129.262 85.3099 129.515 84.9365 129.67 84.52Z" fill="black"/>
<path d="M166.06 58H153.94C153.421 58 153 58.4209 153 58.94V89.06C153 89.5791 153.421 90 153.94 90H166.06C166.579 90 167 89.5791 167 89.06V58.94C167 58.4209 166.579 58 166.06 58Z" fill="black"/>
</svg>
